<mxfile host="app.diagrams.net" agent="Mozilla/5.0 (Windows NT 10.0; Win64; x64) AppleWebKit/537.36 (KHTML, like Gecko) Chrome/135.0.0.0 Safari/537.36" version="26.2.12">
  <diagram name="PÃ¡gina-1" id="783MQ8Rysutn2J8I9882">
    <mxGraphModel dx="1785" dy="946" grid="1" gridSize="10" guides="1" tooltips="1" connect="1" arrows="1" fold="1" page="1" pageScale="1" pageWidth="827" pageHeight="1169" math="0" shadow="0">
      <root>
        <mxCell id="0" />
        <mxCell id="1" parent="0" />
        <mxCell id="Jljs7Uh03ngtDH8yf33p-1" value="&lt;p&gt;Framework Hibernate (JPA)&lt;/p&gt;" style="verticalAlign=top;align=center;spacingTop=8;spacingLeft=2;spacingRight=12;shape=cube;size=10;direction=south;fontStyle=4;html=1;whiteSpace=wrap;fillColor=#0050ef;strokeColor=#001DBC;fontColor=#ffffff;" parent="1" vertex="1">
          <mxGeometry x="200" y="140" width="180" height="200" as="geometry" />
        </mxCell>
        <mxCell id="Jljs7Uh03ngtDH8yf33p-3" value="Banco de Dados (MySQL)" style="shape=cylinder3;whiteSpace=wrap;html=1;boundedLbl=1;backgroundOutline=1;size=15;fillColor=#fa6800;strokeColor=#C73500;fontColor=#000000;" parent="1" vertex="1">
          <mxGeometry x="40" y="195" width="90" height="100" as="geometry" />
        </mxCell>
        <mxCell id="Jljs7Uh03ngtDH8yf33p-4" value="" style="endArrow=classic;startArrow=classic;html=1;rounded=0;exitX=1;exitY=0.5;exitDx=0;exitDy=0;exitPerimeter=0;entryX=0;entryY=0;entryDx=105;entryDy=180;entryPerimeter=0;" parent="1" source="Jljs7Uh03ngtDH8yf33p-3" target="Jljs7Uh03ngtDH8yf33p-1" edge="1">
          <mxGeometry width="50" height="50" relative="1" as="geometry">
            <mxPoint x="410" y="320" as="sourcePoint" />
            <mxPoint x="460" y="270" as="targetPoint" />
          </mxGeometry>
        </mxCell>
        <mxCell id="Jljs7Uh03ngtDH8yf33p-5" value="&lt;p&gt;Navegador WEB&lt;/p&gt;" style="verticalAlign=top;align=center;spacingTop=8;spacingLeft=2;spacingRight=12;shape=cube;size=10;direction=south;fontStyle=4;html=1;whiteSpace=wrap;fillColor=#a20025;strokeColor=#6F0000;fontColor=#ffffff;" parent="1" vertex="1">
          <mxGeometry x="710" y="60" width="180" height="70" as="geometry" />
        </mxCell>
        <mxCell id="Jljs7Uh03ngtDH8yf33p-6" value="&lt;p&gt;Controller&lt;/p&gt;" style="verticalAlign=top;align=center;spacingTop=8;spacingLeft=2;spacingRight=12;shape=cube;size=10;direction=south;fontStyle=4;html=1;whiteSpace=wrap;fillColor=#76608a;strokeColor=#432D57;fontColor=#ffffff;" parent="1" vertex="1">
          <mxGeometry x="710" y="190" width="180" height="70" as="geometry" />
        </mxCell>
        <mxCell id="Jljs7Uh03ngtDH8yf33p-7" value="&lt;p&gt;Service&lt;/p&gt;" style="verticalAlign=top;align=center;spacingTop=8;spacingLeft=2;spacingRight=12;shape=cube;size=10;direction=south;fontStyle=4;html=1;whiteSpace=wrap;fillColor=#bac8d3;strokeColor=#23445d;" parent="1" vertex="1">
          <mxGeometry x="710" y="310" width="180" height="70" as="geometry" />
        </mxCell>
        <mxCell id="Jljs7Uh03ngtDH8yf33p-8" value="&lt;p&gt;Repository&lt;/p&gt;" style="verticalAlign=top;align=center;spacingTop=8;spacingLeft=2;spacingRight=12;shape=cube;size=10;direction=south;fontStyle=4;html=1;whiteSpace=wrap;fillColor=#b0e3e6;strokeColor=#0e8088;" parent="1" vertex="1">
          <mxGeometry x="430" y="195" width="180" height="70" as="geometry" />
        </mxCell>
        <mxCell id="Jljs7Uh03ngtDH8yf33p-9" value="" style="endArrow=classic;startArrow=classic;html=1;rounded=0;exitX=0;exitY=0;exitDx=95;exitDy=0;exitPerimeter=0;entryX=0;entryY=0;entryDx=40;entryDy=180;entryPerimeter=0;" parent="1" source="Jljs7Uh03ngtDH8yf33p-1" target="Jljs7Uh03ngtDH8yf33p-8" edge="1">
          <mxGeometry width="50" height="50" relative="1" as="geometry">
            <mxPoint x="410" y="320" as="sourcePoint" />
            <mxPoint x="460" y="270" as="targetPoint" />
          </mxGeometry>
        </mxCell>
        <mxCell id="Jljs7Uh03ngtDH8yf33p-10" value="" style="endArrow=classic;startArrow=classic;html=1;rounded=0;exitX=0;exitY=0;exitDx=40;exitDy=180;exitPerimeter=0;entryX=0;entryY=0;entryDx=70;entryDy=10;entryPerimeter=0;" parent="1" source="Jljs7Uh03ngtDH8yf33p-7" target="Jljs7Uh03ngtDH8yf33p-8" edge="1">
          <mxGeometry width="50" height="50" relative="1" as="geometry">
            <mxPoint x="410" y="320" as="sourcePoint" />
            <mxPoint x="460" y="270" as="targetPoint" />
          </mxGeometry>
        </mxCell>
        <mxCell id="Jljs7Uh03ngtDH8yf33p-11" value="" style="endArrow=classic;startArrow=classic;html=1;rounded=0;entryX=0;entryY=0;entryDx=70;entryDy=95;entryPerimeter=0;exitX=0.007;exitY=0.519;exitDx=0;exitDy=0;exitPerimeter=0;" parent="1" source="Jljs7Uh03ngtDH8yf33p-7" target="Jljs7Uh03ngtDH8yf33p-6" edge="1">
          <mxGeometry width="50" height="50" relative="1" as="geometry">
            <mxPoint x="795" y="280" as="sourcePoint" />
            <mxPoint x="460" y="270" as="targetPoint" />
          </mxGeometry>
        </mxCell>
        <mxCell id="Jljs7Uh03ngtDH8yf33p-12" value="" style="endArrow=classic;startArrow=classic;html=1;rounded=0;entryX=0;entryY=0;entryDx=70;entryDy=95;entryPerimeter=0;exitX=-0.026;exitY=0.523;exitDx=0;exitDy=0;exitPerimeter=0;" parent="1" source="Jljs7Uh03ngtDH8yf33p-6" target="Jljs7Uh03ngtDH8yf33p-5" edge="1">
          <mxGeometry width="50" height="50" relative="1" as="geometry">
            <mxPoint x="410" y="320" as="sourcePoint" />
            <mxPoint x="460" y="270" as="targetPoint" />
          </mxGeometry>
        </mxCell>
        <mxCell id="Jljs7Uh03ngtDH8yf33p-13" value="com.fatec.livraria" style="shape=folder;fontStyle=1;spacingTop=10;tabWidth=40;tabHeight=14;tabPosition=left;html=1;whiteSpace=wrap;fillColor=#bac8d3;strokeColor=#23445d;" parent="1" vertex="1">
          <mxGeometry x="40" y="580" width="220" height="80" as="geometry" />
        </mxCell>
        <mxCell id="Jljs7Uh03ngtDH8yf33p-14" value="controller" style="shape=folder;fontStyle=1;spacingTop=10;tabWidth=40;tabHeight=14;tabPosition=left;html=1;whiteSpace=wrap;fillColor=#b0e3e6;strokeColor=#0e8088;" parent="1" vertex="1">
          <mxGeometry x="130" y="770" width="160" height="80" as="geometry" />
        </mxCell>
        <mxCell id="Jljs7Uh03ngtDH8yf33p-15" value="service" style="shape=folder;fontStyle=1;spacingTop=10;tabWidth=40;tabHeight=14;tabPosition=left;html=1;whiteSpace=wrap;fillColor=#b0e3e6;strokeColor=#0e8088;" parent="1" vertex="1">
          <mxGeometry x="130" y="1169" width="160" height="80" as="geometry" />
        </mxCell>
        <mxCell id="Jljs7Uh03ngtDH8yf33p-16" value="repository" style="shape=folder;fontStyle=1;spacingTop=10;tabWidth=40;tabHeight=14;tabPosition=left;html=1;whiteSpace=wrap;fillColor=#b0e3e6;strokeColor=#0e8088;" parent="1" vertex="1">
          <mxGeometry x="130" y="1070" width="160" height="80" as="geometry" />
        </mxCell>
        <mxCell id="Jljs7Uh03ngtDH8yf33p-17" value="entity" style="shape=folder;fontStyle=1;spacingTop=10;tabWidth=40;tabHeight=14;tabPosition=left;html=1;whiteSpace=wrap;fillColor=#b0e3e6;strokeColor=#0e8088;" parent="1" vertex="1">
          <mxGeometry x="130" y="970" width="160" height="80" as="geometry" />
        </mxCell>
        <mxCell id="Jljs7Uh03ngtDH8yf33p-18" value="dto" style="shape=folder;fontStyle=1;spacingTop=10;tabWidth=40;tabHeight=14;tabPosition=left;html=1;whiteSpace=wrap;fillColor=#b0e3e6;strokeColor=#0e8088;" parent="1" vertex="1">
          <mxGeometry x="130" y="870" width="160" height="80" as="geometry" />
        </mxCell>
        <mxCell id="Jljs7Uh03ngtDH8yf33p-19" value="config" style="shape=folder;fontStyle=1;spacingTop=10;tabWidth=40;tabHeight=14;tabPosition=left;html=1;whiteSpace=wrap;fillColor=#b0e3e6;strokeColor=#0e8088;" parent="1" vertex="1">
          <mxGeometry x="130" y="680" width="160" height="80" as="geometry" />
        </mxCell>
        <mxCell id="Jljs7Uh03ngtDH8yf33p-22" value="" style="endArrow=none;dashed=1;html=1;rounded=0;entryX=0.102;entryY=0.996;entryDx=0;entryDy=0;entryPerimeter=0;" parent="1" target="Jljs7Uh03ngtDH8yf33p-13" edge="1">
          <mxGeometry width="50" height="50" relative="1" as="geometry">
            <mxPoint x="60" y="1220" as="sourcePoint" />
            <mxPoint x="110" y="960" as="targetPoint" />
          </mxGeometry>
        </mxCell>
        <mxCell id="Jljs7Uh03ngtDH8yf33p-26" value="" style="endArrow=none;dashed=1;html=1;rounded=0;exitX=0;exitY=0;exitDx=0;exitDy=47;exitPerimeter=0;" parent="1" source="Jljs7Uh03ngtDH8yf33p-15" edge="1">
          <mxGeometry width="50" height="50" relative="1" as="geometry">
            <mxPoint x="390" y="1169" as="sourcePoint" />
            <mxPoint x="60" y="1216" as="targetPoint" />
          </mxGeometry>
        </mxCell>
        <mxCell id="Jljs7Uh03ngtDH8yf33p-27" value="" style="endArrow=none;dashed=1;html=1;rounded=0;exitX=0;exitY=0;exitDx=0;exitDy=47;exitPerimeter=0;" parent="1" source="Jljs7Uh03ngtDH8yf33p-16" edge="1">
          <mxGeometry width="50" height="50" relative="1" as="geometry">
            <mxPoint x="390" y="1170" as="sourcePoint" />
            <mxPoint x="60" y="1117" as="targetPoint" />
          </mxGeometry>
        </mxCell>
        <mxCell id="Jljs7Uh03ngtDH8yf33p-28" value="" style="endArrow=none;dashed=1;html=1;rounded=0;exitX=0;exitY=0;exitDx=0;exitDy=47;exitPerimeter=0;" parent="1" source="Jljs7Uh03ngtDH8yf33p-17" edge="1">
          <mxGeometry width="50" height="50" relative="1" as="geometry">
            <mxPoint x="390" y="1090" as="sourcePoint" />
            <mxPoint x="60" y="1017" as="targetPoint" />
          </mxGeometry>
        </mxCell>
        <mxCell id="Jljs7Uh03ngtDH8yf33p-29" value="" style="endArrow=none;dashed=1;html=1;rounded=0;exitX=0;exitY=0;exitDx=0;exitDy=47;exitPerimeter=0;" parent="1" source="Jljs7Uh03ngtDH8yf33p-18" edge="1">
          <mxGeometry width="50" height="50" relative="1" as="geometry">
            <mxPoint x="390" y="920" as="sourcePoint" />
            <mxPoint x="60" y="917" as="targetPoint" />
          </mxGeometry>
        </mxCell>
        <mxCell id="Jljs7Uh03ngtDH8yf33p-30" value="" style="endArrow=none;dashed=1;html=1;rounded=0;exitX=0;exitY=0;exitDx=0;exitDy=47;exitPerimeter=0;" parent="1" source="Jljs7Uh03ngtDH8yf33p-14" edge="1">
          <mxGeometry width="50" height="50" relative="1" as="geometry">
            <mxPoint x="390" y="920" as="sourcePoint" />
            <mxPoint x="60" y="817" as="targetPoint" />
          </mxGeometry>
        </mxCell>
        <mxCell id="Jljs7Uh03ngtDH8yf33p-31" value="" style="endArrow=none;dashed=1;html=1;rounded=0;exitX=0;exitY=0;exitDx=0;exitDy=47;exitPerimeter=0;" parent="1" source="Jljs7Uh03ngtDH8yf33p-19" edge="1">
          <mxGeometry width="50" height="50" relative="1" as="geometry">
            <mxPoint x="390" y="920" as="sourcePoint" />
            <mxPoint x="60" y="727" as="targetPoint" />
          </mxGeometry>
        </mxCell>
        <mxCell id="j0LKuT5T8fVfJBvnA6u6-1" value="Administrador" style="shape=umlActor;verticalLabelPosition=bottom;verticalAlign=top;html=1;outlineConnect=0;fillColor=#dae8fc;strokeColor=#6c8ebf;gradientColor=#7ea6e0;" parent="1" vertex="1">
          <mxGeometry x="630" y="695" width="30" height="60" as="geometry" />
        </mxCell>
        <mxCell id="j0LKuT5T8fVfJBvnA6u6-2" value="" style="swimlane;startSize=0;" parent="1" vertex="1">
          <mxGeometry x="730" y="560" width="350" height="330" as="geometry" />
        </mxCell>
        <mxCell id="j0LKuT5T8fVfJBvnA6u6-3" value="Sistema de Livraria" style="text;html=1;align=center;verticalAlign=middle;whiteSpace=wrap;rounded=0;" parent="j0LKuT5T8fVfJBvnA6u6-2" vertex="1">
          <mxGeometry x="110" width="130" height="30" as="geometry" />
        </mxCell>
        <mxCell id="j0LKuT5T8fVfJBvnA6u6-4" value="&lt;font style=&quot;font-size: 11px;&quot;&gt;Manter CatÃ¡logo Livros&lt;/font&gt;" style="ellipse;whiteSpace=wrap;html=1;fillColor=#fff2cc;gradientColor=#ffd966;strokeColor=#d6b656;" parent="j0LKuT5T8fVfJBvnA6u6-2" vertex="1">
          <mxGeometry x="80" y="140" width="100" height="50" as="geometry" />
        </mxCell>
        <mxCell id="j0LKuT5T8fVfJBvnA6u6-5" value="&lt;font style=&quot;font-size: 11px;&quot;&gt;Listar Livros Cadastrados&lt;/font&gt;" style="ellipse;whiteSpace=wrap;html=1;fillColor=#fff2cc;gradientColor=#ffd966;strokeColor=#d6b656;" parent="j0LKuT5T8fVfJBvnA6u6-2" vertex="1">
          <mxGeometry x="80" y="30" width="100" height="50" as="geometry" />
        </mxCell>
        <mxCell id="j0LKuT5T8fVfJBvnA6u6-6" value="&lt;font style=&quot;font-size: 11px;&quot;&gt;Editar Qtde do Estoque&lt;/font&gt;" style="ellipse;whiteSpace=wrap;html=1;fillColor=#fff2cc;gradientColor=#ffd966;strokeColor=#d6b656;" parent="j0LKuT5T8fVfJBvnA6u6-2" vertex="1">
          <mxGeometry x="80" y="250" width="100" height="50" as="geometry" />
        </mxCell>
        <mxCell id="j0LKuT5T8fVfJBvnA6u6-7" value="&lt;font style=&quot;font-size: 11px;&quot;&gt;Validar Dados inseridos&lt;/font&gt;" style="ellipse;whiteSpace=wrap;html=1;fillColor=#fff2cc;gradientColor=#ffd966;strokeColor=#d6b656;" parent="j0LKuT5T8fVfJBvnA6u6-2" vertex="1">
          <mxGeometry x="230" y="210" width="90" height="40" as="geometry" />
        </mxCell>
        <mxCell id="j0LKuT5T8fVfJBvnA6u6-8" value="&lt;font style=&quot;font-size: 11px;&quot;&gt;Salvar no Banco de Dados&lt;/font&gt;" style="ellipse;whiteSpace=wrap;html=1;fillColor=#fff2cc;gradientColor=#ffd966;strokeColor=#d6b656;" parent="j0LKuT5T8fVfJBvnA6u6-2" vertex="1">
          <mxGeometry x="230" y="120" width="90" height="50" as="geometry" />
        </mxCell>
        <mxCell id="j0LKuT5T8fVfJBvnA6u6-11" value="" style="endArrow=classic;html=1;rounded=0;exitX=0.5;exitY=1;exitDx=0;exitDy=0;entryX=0.5;entryY=0;entryDx=0;entryDy=0;dashed=1;" parent="j0LKuT5T8fVfJBvnA6u6-2" source="j0LKuT5T8fVfJBvnA6u6-4" target="j0LKuT5T8fVfJBvnA6u6-6" edge="1">
          <mxGeometry width="50" height="50" relative="1" as="geometry">
            <mxPoint x="90" y="180" as="sourcePoint" />
            <mxPoint x="140" y="130" as="targetPoint" />
          </mxGeometry>
        </mxCell>
        <mxCell id="j0LKuT5T8fVfJBvnA6u6-12" value="" style="endArrow=classic;html=1;rounded=0;exitX=0.5;exitY=0;exitDx=0;exitDy=0;entryX=0.5;entryY=1;entryDx=0;entryDy=0;dashed=1;" parent="j0LKuT5T8fVfJBvnA6u6-2" source="j0LKuT5T8fVfJBvnA6u6-4" target="j0LKuT5T8fVfJBvnA6u6-5" edge="1">
          <mxGeometry width="50" height="50" relative="1" as="geometry">
            <mxPoint x="140" y="200" as="sourcePoint" />
            <mxPoint x="140" y="260" as="targetPoint" />
          </mxGeometry>
        </mxCell>
        <mxCell id="j0LKuT5T8fVfJBvnA6u6-13" value="" style="endArrow=classic;html=1;rounded=0;exitX=1;exitY=0.5;exitDx=0;exitDy=0;entryX=0;entryY=1;entryDx=0;entryDy=0;dashed=1;" parent="j0LKuT5T8fVfJBvnA6u6-2" source="j0LKuT5T8fVfJBvnA6u6-6" target="j0LKuT5T8fVfJBvnA6u6-7" edge="1">
          <mxGeometry width="50" height="50" relative="1" as="geometry">
            <mxPoint x="150" y="210" as="sourcePoint" />
            <mxPoint x="150" y="270" as="targetPoint" />
          </mxGeometry>
        </mxCell>
        <mxCell id="j0LKuT5T8fVfJBvnA6u6-14" value="" style="endArrow=classic;html=1;rounded=0;exitX=0.5;exitY=0;exitDx=0;exitDy=0;entryX=0.5;entryY=1;entryDx=0;entryDy=0;dashed=1;" parent="j0LKuT5T8fVfJBvnA6u6-2" source="j0LKuT5T8fVfJBvnA6u6-7" target="j0LKuT5T8fVfJBvnA6u6-8" edge="1">
          <mxGeometry width="50" height="50" relative="1" as="geometry">
            <mxPoint x="190" y="285" as="sourcePoint" />
            <mxPoint x="253" y="254" as="targetPoint" />
          </mxGeometry>
        </mxCell>
        <mxCell id="j0LKuT5T8fVfJBvnA6u6-15" value="&lt;font style=&quot;font-size: 7px;&quot;&gt;&amp;lt;&amp;lt;extends&amp;gt;&amp;gt;&lt;/font&gt;" style="text;html=1;align=center;verticalAlign=middle;whiteSpace=wrap;rounded=0;" parent="j0LKuT5T8fVfJBvnA6u6-2" vertex="1">
          <mxGeometry x="77" y="105" width="60" height="15" as="geometry" />
        </mxCell>
        <mxCell id="j0LKuT5T8fVfJBvnA6u6-17" value="&lt;font style=&quot;font-size: 7px;&quot;&gt;&amp;lt;&amp;lt;extends&amp;gt;&amp;gt;&lt;/font&gt;" style="text;html=1;align=center;verticalAlign=middle;whiteSpace=wrap;rounded=0;" parent="j0LKuT5T8fVfJBvnA6u6-2" vertex="1">
          <mxGeometry x="80" y="210" width="60" height="15" as="geometry" />
        </mxCell>
        <mxCell id="j0LKuT5T8fVfJBvnA6u6-18" value="&lt;font style=&quot;font-size: 7px;&quot;&gt;&amp;lt;&amp;lt;includes&amp;gt;&amp;gt;&lt;/font&gt;" style="text;html=1;align=center;verticalAlign=middle;whiteSpace=wrap;rounded=0;" parent="j0LKuT5T8fVfJBvnA6u6-2" vertex="1">
          <mxGeometry x="200" y="260" width="60" height="15" as="geometry" />
        </mxCell>
        <mxCell id="j0LKuT5T8fVfJBvnA6u6-19" value="&lt;font style=&quot;font-size: 7px;&quot;&gt;&amp;lt;&amp;lt;includes&amp;gt;&amp;gt;&lt;/font&gt;" style="text;html=1;align=center;verticalAlign=middle;whiteSpace=wrap;rounded=0;" parent="j0LKuT5T8fVfJBvnA6u6-2" vertex="1">
          <mxGeometry x="270" y="180" width="60" height="15" as="geometry" />
        </mxCell>
        <mxCell id="j0LKuT5T8fVfJBvnA6u6-9" value="" style="endArrow=classic;html=1;rounded=0;entryX=0;entryY=0.5;entryDx=0;entryDy=0;" parent="1" source="j0LKuT5T8fVfJBvnA6u6-1" target="j0LKuT5T8fVfJBvnA6u6-4" edge="1">
          <mxGeometry width="50" height="50" relative="1" as="geometry">
            <mxPoint x="820" y="740" as="sourcePoint" />
            <mxPoint x="870" y="690" as="targetPoint" />
          </mxGeometry>
        </mxCell>
        <mxCell id="j0LKuT5T8fVfJBvnA6u6-37" value="Cliente" style="shape=umlActor;verticalLabelPosition=bottom;verticalAlign=top;html=1;outlineConnect=0;fillColor=#dae8fc;strokeColor=#6c8ebf;gradientColor=#7ea6e0;" parent="1" vertex="1">
          <mxGeometry x="590" y="1135" width="30" height="60" as="geometry" />
        </mxCell>
        <mxCell id="j0LKuT5T8fVfJBvnA6u6-38" value="" style="swimlane;startSize=0;" parent="1" vertex="1">
          <mxGeometry x="690" y="990" width="420" height="390" as="geometry" />
        </mxCell>
        <mxCell id="j0LKuT5T8fVfJBvnA6u6-39" value="Sistema de Livraria" style="text;html=1;align=center;verticalAlign=middle;whiteSpace=wrap;rounded=0;" parent="j0LKuT5T8fVfJBvnA6u6-38" vertex="1">
          <mxGeometry x="140" width="130" height="30" as="geometry" />
        </mxCell>
        <mxCell id="j0LKuT5T8fVfJBvnA6u6-40" value="&lt;span style=&quot;font-size: 11px;&quot;&gt;Ver AnÃºncio&lt;/span&gt;" style="ellipse;whiteSpace=wrap;html=1;fillColor=#fff2cc;gradientColor=#ffd966;strokeColor=#d6b656;" parent="j0LKuT5T8fVfJBvnA6u6-38" vertex="1">
          <mxGeometry x="40" y="60" width="100" height="50" as="geometry" />
        </mxCell>
        <mxCell id="j0LKuT5T8fVfJBvnA6u6-54" value="&lt;span style=&quot;font-size: 11px;&quot;&gt;Adicionar ao Carrinho&lt;/span&gt;" style="ellipse;whiteSpace=wrap;html=1;fillColor=#fff2cc;gradientColor=#ffd966;strokeColor=#d6b656;" parent="j0LKuT5T8fVfJBvnA6u6-38" vertex="1">
          <mxGeometry x="40" y="130" width="100" height="50" as="geometry" />
        </mxCell>
        <mxCell id="j0LKuT5T8fVfJBvnA6u6-55" value="&lt;span style=&quot;font-size: 11px;&quot;&gt;Editar Qtde&lt;/span&gt;" style="ellipse;whiteSpace=wrap;html=1;fillColor=#fff2cc;gradientColor=#ffd966;strokeColor=#d6b656;" parent="j0LKuT5T8fVfJBvnA6u6-38" vertex="1">
          <mxGeometry x="180" y="60" width="100" height="50" as="geometry" />
        </mxCell>
        <mxCell id="j0LKuT5T8fVfJBvnA6u6-56" value="&lt;span style=&quot;font-size: 11px;&quot;&gt;Finalizar Compra&lt;/span&gt;" style="ellipse;whiteSpace=wrap;html=1;fillColor=#fff2cc;gradientColor=#ffd966;strokeColor=#d6b656;" parent="j0LKuT5T8fVfJBvnA6u6-38" vertex="1">
          <mxGeometry x="40" y="220" width="100" height="50" as="geometry" />
        </mxCell>
        <mxCell id="j0LKuT5T8fVfJBvnA6u6-57" value="&lt;span style=&quot;font-size: 11px;&quot;&gt;Cadastrar EndereÃ§o&lt;/span&gt;" style="ellipse;whiteSpace=wrap;html=1;fillColor=#fff2cc;gradientColor=#ffd966;strokeColor=#d6b656;" parent="j0LKuT5T8fVfJBvnA6u6-38" vertex="1">
          <mxGeometry x="290" y="129" width="100" height="50" as="geometry" />
        </mxCell>
        <mxCell id="j0LKuT5T8fVfJBvnA6u6-58" value="&lt;span style=&quot;font-size: 11px;&quot;&gt;Cadastrar CartÃ£o&lt;/span&gt;" style="ellipse;whiteSpace=wrap;html=1;fillColor=#fff2cc;gradientColor=#ffd966;strokeColor=#d6b656;" parent="j0LKuT5T8fVfJBvnA6u6-38" vertex="1">
          <mxGeometry x="290" y="230" width="100" height="50" as="geometry" />
        </mxCell>
        <mxCell id="j0LKuT5T8fVfJBvnA6u6-59" value="&lt;span style=&quot;font-size: 11px;&quot;&gt;Calcular Valor Total&lt;/span&gt;" style="ellipse;whiteSpace=wrap;html=1;fillColor=#fff2cc;gradientColor=#ffd966;strokeColor=#d6b656;" parent="j0LKuT5T8fVfJBvnA6u6-38" vertex="1">
          <mxGeometry x="40" y="310" width="100" height="50" as="geometry" />
        </mxCell>
        <mxCell id="j0LKuT5T8fVfJBvnA6u6-60" value="&lt;span style=&quot;font-size: 11px;&quot;&gt;Persistir Pedido&lt;/span&gt;" style="ellipse;whiteSpace=wrap;html=1;fillColor=#fff2cc;gradientColor=#ffd966;strokeColor=#d6b656;" parent="j0LKuT5T8fVfJBvnA6u6-38" vertex="1">
          <mxGeometry x="180" y="310" width="100" height="50" as="geometry" />
        </mxCell>
        <mxCell id="j0LKuT5T8fVfJBvnA6u6-64" value="" style="endArrow=classic;html=1;rounded=0;exitX=1;exitY=0;exitDx=0;exitDy=0;entryX=0;entryY=1;entryDx=0;entryDy=0;dashed=1;" parent="j0LKuT5T8fVfJBvnA6u6-38" source="j0LKuT5T8fVfJBvnA6u6-54" target="j0LKuT5T8fVfJBvnA6u6-55" edge="1">
          <mxGeometry width="50" height="50" relative="1" as="geometry">
            <mxPoint x="200" y="210" as="sourcePoint" />
            <mxPoint x="200" y="150" as="targetPoint" />
          </mxGeometry>
        </mxCell>
        <mxCell id="j0LKuT5T8fVfJBvnA6u6-65" value="" style="endArrow=classic;html=1;rounded=0;exitX=0.5;exitY=1;exitDx=0;exitDy=0;entryX=0.5;entryY=0;entryDx=0;entryDy=0;dashed=1;" parent="j0LKuT5T8fVfJBvnA6u6-38" source="j0LKuT5T8fVfJBvnA6u6-56" target="j0LKuT5T8fVfJBvnA6u6-59" edge="1">
          <mxGeometry width="50" height="50" relative="1" as="geometry">
            <mxPoint x="135" y="147" as="sourcePoint" />
            <mxPoint x="205" y="113" as="targetPoint" />
          </mxGeometry>
        </mxCell>
        <mxCell id="j0LKuT5T8fVfJBvnA6u6-66" value="" style="endArrow=classic;html=1;rounded=0;exitX=1;exitY=1;exitDx=0;exitDy=0;entryX=0;entryY=0;entryDx=0;entryDy=0;dashed=1;" parent="j0LKuT5T8fVfJBvnA6u6-38" source="j0LKuT5T8fVfJBvnA6u6-56" target="j0LKuT5T8fVfJBvnA6u6-60" edge="1">
          <mxGeometry width="50" height="50" relative="1" as="geometry">
            <mxPoint x="145" y="157" as="sourcePoint" />
            <mxPoint x="215" y="123" as="targetPoint" />
          </mxGeometry>
        </mxCell>
        <mxCell id="j0LKuT5T8fVfJBvnA6u6-67" value="" style="endArrow=classic;html=1;rounded=0;exitX=1;exitY=0.5;exitDx=0;exitDy=0;entryX=0;entryY=0.5;entryDx=0;entryDy=0;dashed=1;" parent="j0LKuT5T8fVfJBvnA6u6-38" source="j0LKuT5T8fVfJBvnA6u6-56" target="j0LKuT5T8fVfJBvnA6u6-58" edge="1">
          <mxGeometry width="50" height="50" relative="1" as="geometry">
            <mxPoint x="135" y="273" as="sourcePoint" />
            <mxPoint x="205" y="327" as="targetPoint" />
          </mxGeometry>
        </mxCell>
        <mxCell id="j0LKuT5T8fVfJBvnA6u6-68" value="" style="endArrow=classic;html=1;rounded=0;exitX=1;exitY=0;exitDx=0;exitDy=0;entryX=0;entryY=1;entryDx=0;entryDy=0;dashed=1;" parent="j0LKuT5T8fVfJBvnA6u6-38" source="j0LKuT5T8fVfJBvnA6u6-56" target="j0LKuT5T8fVfJBvnA6u6-57" edge="1">
          <mxGeometry width="50" height="50" relative="1" as="geometry">
            <mxPoint x="150" y="255" as="sourcePoint" />
            <mxPoint x="300" y="265" as="targetPoint" />
          </mxGeometry>
        </mxCell>
        <mxCell id="j0LKuT5T8fVfJBvnA6u6-69" value="&lt;font style=&quot;font-size: 7px;&quot;&gt;&amp;lt;&amp;lt;extends&amp;gt;&amp;gt;&lt;/font&gt;" style="text;html=1;align=center;verticalAlign=middle;whiteSpace=wrap;rounded=0;" parent="j0LKuT5T8fVfJBvnA6u6-38" vertex="1">
          <mxGeometry x="190" y="179" width="60" height="15" as="geometry" />
        </mxCell>
        <mxCell id="j0LKuT5T8fVfJBvnA6u6-70" value="&lt;font style=&quot;font-size: 7px;&quot;&gt;&amp;lt;&amp;lt;extends&amp;gt;&amp;gt;&lt;/font&gt;" style="text;html=1;align=center;verticalAlign=middle;whiteSpace=wrap;rounded=0;" parent="j0LKuT5T8fVfJBvnA6u6-38" vertex="1">
          <mxGeometry x="190" y="237.5" width="60" height="15" as="geometry" />
        </mxCell>
        <mxCell id="j0LKuT5T8fVfJBvnA6u6-71" value="&lt;font style=&quot;font-size: 7px;&quot;&gt;&amp;lt;&amp;lt;extends&amp;gt;&amp;gt;&lt;/font&gt;" style="text;html=1;align=center;verticalAlign=middle;whiteSpace=wrap;rounded=0;" parent="j0LKuT5T8fVfJBvnA6u6-38" vertex="1">
          <mxGeometry x="145" y="115" width="60" height="15" as="geometry" />
        </mxCell>
        <mxCell id="j0LKuT5T8fVfJBvnA6u6-72" value="&lt;font style=&quot;font-size: 7px;&quot;&gt;&amp;lt;&amp;lt;includes&amp;gt;&amp;gt;&lt;/font&gt;" style="text;html=1;align=center;verticalAlign=middle;whiteSpace=wrap;rounded=0;" parent="j0LKuT5T8fVfJBvnA6u6-38" vertex="1">
          <mxGeometry x="145" y="270" width="60" height="15" as="geometry" />
        </mxCell>
        <mxCell id="j0LKuT5T8fVfJBvnA6u6-73" value="&lt;font style=&quot;font-size: 7px;&quot;&gt;&amp;lt;&amp;lt;includes&amp;gt;&amp;gt;&lt;/font&gt;" style="text;html=1;align=center;verticalAlign=middle;whiteSpace=wrap;rounded=0;" parent="j0LKuT5T8fVfJBvnA6u6-38" vertex="1">
          <mxGeometry x="38" y="280" width="60" height="15" as="geometry" />
        </mxCell>
        <mxCell id="j0LKuT5T8fVfJBvnA6u6-61" value="" style="endArrow=classic;html=1;rounded=0;entryX=0;entryY=0.5;entryDx=0;entryDy=0;" parent="1" source="j0LKuT5T8fVfJBvnA6u6-37" target="j0LKuT5T8fVfJBvnA6u6-40" edge="1">
          <mxGeometry width="50" height="50" relative="1" as="geometry">
            <mxPoint x="880" y="1130" as="sourcePoint" />
            <mxPoint x="930" y="1080" as="targetPoint" />
          </mxGeometry>
        </mxCell>
        <mxCell id="j0LKuT5T8fVfJBvnA6u6-62" value="" style="endArrow=classic;html=1;rounded=0;exitX=1;exitY=0.3333333333333333;exitDx=0;exitDy=0;exitPerimeter=0;entryX=0;entryY=0.5;entryDx=0;entryDy=0;" parent="1" source="j0LKuT5T8fVfJBvnA6u6-37" target="j0LKuT5T8fVfJBvnA6u6-54" edge="1">
          <mxGeometry width="50" height="50" relative="1" as="geometry">
            <mxPoint x="880" y="1130" as="sourcePoint" />
            <mxPoint x="930" y="1080" as="targetPoint" />
          </mxGeometry>
        </mxCell>
        <mxCell id="j0LKuT5T8fVfJBvnA6u6-63" value="" style="endArrow=classic;html=1;rounded=0;entryX=0;entryY=0.5;entryDx=0;entryDy=0;" parent="1" source="j0LKuT5T8fVfJBvnA6u6-37" target="j0LKuT5T8fVfJBvnA6u6-56" edge="1">
          <mxGeometry width="50" height="50" relative="1" as="geometry">
            <mxPoint x="880" y="1330" as="sourcePoint" />
            <mxPoint x="930" y="1280" as="targetPoint" />
          </mxGeometry>
        </mxCell>
        <mxCell id="j0LKuT5T8fVfJBvnA6u6-74" value="Cliente" style="shape=umlActor;verticalLabelPosition=bottom;verticalAlign=top;html=1;outlineConnect=0;fillColor=#dae8fc;strokeColor=#6c8ebf;gradientColor=#7ea6e0;" parent="1" vertex="1">
          <mxGeometry x="620" y="1605" width="30" height="60" as="geometry" />
        </mxCell>
        <mxCell id="j0LKuT5T8fVfJBvnA6u6-75" value="" style="swimlane;startSize=0;" parent="1" vertex="1">
          <mxGeometry x="720" y="1470" width="350" height="330" as="geometry" />
        </mxCell>
        <mxCell id="j0LKuT5T8fVfJBvnA6u6-76" value="Sistema de Livraria" style="text;html=1;align=center;verticalAlign=middle;whiteSpace=wrap;rounded=0;" parent="j0LKuT5T8fVfJBvnA6u6-75" vertex="1">
          <mxGeometry x="110" width="130" height="30" as="geometry" />
        </mxCell>
        <mxCell id="j0LKuT5T8fVfJBvnA6u6-77" value="&lt;font style=&quot;font-size: 11px;&quot;&gt;Consultar HistÃ³rico&lt;/font&gt;" style="ellipse;whiteSpace=wrap;html=1;fillColor=#fff2cc;gradientColor=#ffd966;strokeColor=#d6b656;" parent="j0LKuT5T8fVfJBvnA6u6-75" vertex="1">
          <mxGeometry x="40" y="140" width="100" height="50" as="geometry" />
        </mxCell>
        <mxCell id="j0LKuT5T8fVfJBvnA6u6-91" value="&lt;font style=&quot;font-size: 11px;&quot;&gt;Listar Pedidos&lt;/font&gt;" style="ellipse;whiteSpace=wrap;html=1;fillColor=#fff2cc;gradientColor=#ffd966;strokeColor=#d6b656;" parent="j0LKuT5T8fVfJBvnA6u6-75" vertex="1">
          <mxGeometry x="120" y="70" width="100" height="40" as="geometry" />
        </mxCell>
        <mxCell id="j0LKuT5T8fVfJBvnA6u6-92" value="&lt;font style=&quot;font-size: 11px;&quot;&gt;Ver Itens do Pedido&lt;/font&gt;" style="ellipse;whiteSpace=wrap;html=1;fillColor=#fff2cc;gradientColor=#ffd966;strokeColor=#d6b656;" parent="j0LKuT5T8fVfJBvnA6u6-75" vertex="1">
          <mxGeometry x="200" y="140" width="100" height="50" as="geometry" />
        </mxCell>
        <mxCell id="j0LKuT5T8fVfJBvnA6u6-93" value="&lt;font style=&quot;font-size: 11px;&quot;&gt;Pedir DevoluÃ§Ã£o&lt;/font&gt;" style="ellipse;whiteSpace=wrap;html=1;fillColor=#fff2cc;gradientColor=#ffd966;strokeColor=#d6b656;" parent="j0LKuT5T8fVfJBvnA6u6-75" vertex="1">
          <mxGeometry x="230" y="234" width="100" height="50" as="geometry" />
        </mxCell>
        <mxCell id="j0LKuT5T8fVfJBvnA6u6-94" value="&lt;font style=&quot;font-size: 11px;&quot;&gt;Pedir Cancelamento&lt;/font&gt;" style="ellipse;whiteSpace=wrap;html=1;fillColor=#fff2cc;gradientColor=#ffd966;strokeColor=#d6b656;" parent="j0LKuT5T8fVfJBvnA6u6-75" vertex="1">
          <mxGeometry x="110" y="234" width="100" height="50" as="geometry" />
        </mxCell>
        <mxCell id="j0LKuT5T8fVfJBvnA6u6-95" value="" style="endArrow=classic;html=1;rounded=0;exitX=0.5;exitY=0;exitDx=0;exitDy=0;entryX=0;entryY=1;entryDx=0;entryDy=0;dashed=1;" parent="j0LKuT5T8fVfJBvnA6u6-75" source="j0LKuT5T8fVfJBvnA6u6-77" target="j0LKuT5T8fVfJBvnA6u6-91" edge="1">
          <mxGeometry width="50" height="50" relative="1" as="geometry">
            <mxPoint x="150" y="144" as="sourcePoint" />
            <mxPoint x="220" y="110" as="targetPoint" />
          </mxGeometry>
        </mxCell>
        <mxCell id="j0LKuT5T8fVfJBvnA6u6-96" value="" style="endArrow=classic;html=1;rounded=0;exitX=1;exitY=1;exitDx=0;exitDy=0;dashed=1;" parent="j0LKuT5T8fVfJBvnA6u6-75" source="j0LKuT5T8fVfJBvnA6u6-91" target="j0LKuT5T8fVfJBvnA6u6-92" edge="1">
          <mxGeometry width="50" height="50" relative="1" as="geometry">
            <mxPoint x="100" y="150" as="sourcePoint" />
            <mxPoint x="145" y="114" as="targetPoint" />
          </mxGeometry>
        </mxCell>
        <mxCell id="j0LKuT5T8fVfJBvnA6u6-97" value="" style="endArrow=classic;html=1;rounded=0;exitX=0.5;exitY=1;exitDx=0;exitDy=0;dashed=1;entryX=0.5;entryY=0;entryDx=0;entryDy=0;" parent="j0LKuT5T8fVfJBvnA6u6-75" source="j0LKuT5T8fVfJBvnA6u6-92" target="j0LKuT5T8fVfJBvnA6u6-93" edge="1">
          <mxGeometry width="50" height="50" relative="1" as="geometry">
            <mxPoint x="215" y="114" as="sourcePoint" />
            <mxPoint x="243" y="152" as="targetPoint" />
          </mxGeometry>
        </mxCell>
        <mxCell id="j0LKuT5T8fVfJBvnA6u6-98" value="" style="endArrow=classic;html=1;rounded=0;exitX=0;exitY=1;exitDx=0;exitDy=0;dashed=1;entryX=0.5;entryY=0;entryDx=0;entryDy=0;" parent="j0LKuT5T8fVfJBvnA6u6-75" source="j0LKuT5T8fVfJBvnA6u6-92" target="j0LKuT5T8fVfJBvnA6u6-94" edge="1">
          <mxGeometry width="50" height="50" relative="1" as="geometry">
            <mxPoint x="260" y="200" as="sourcePoint" />
            <mxPoint x="290" y="244" as="targetPoint" />
          </mxGeometry>
        </mxCell>
        <mxCell id="j0LKuT5T8fVfJBvnA6u6-99" value="&lt;font style=&quot;font-size: 7px;&quot;&gt;&amp;lt;&amp;lt;includes&amp;gt;&amp;gt;&lt;/font&gt;" style="text;html=1;align=center;verticalAlign=middle;whiteSpace=wrap;rounded=0;" parent="j0LKuT5T8fVfJBvnA6u6-75" vertex="1">
          <mxGeometry x="60" y="110" width="60" height="15" as="geometry" />
        </mxCell>
        <mxCell id="j0LKuT5T8fVfJBvnA6u6-100" value="&lt;font style=&quot;font-size: 7px;&quot;&gt;&amp;lt;&amp;lt;extends&amp;gt;&amp;gt;&lt;/font&gt;" style="text;html=1;align=center;verticalAlign=middle;whiteSpace=wrap;rounded=0;" parent="j0LKuT5T8fVfJBvnA6u6-75" vertex="1">
          <mxGeometry x="210" y="110" width="60" height="15" as="geometry" />
        </mxCell>
        <mxCell id="j0LKuT5T8fVfJBvnA6u6-101" value="&lt;font style=&quot;font-size: 7px;&quot;&gt;&amp;lt;&amp;lt;extends&amp;gt;&amp;gt;&lt;/font&gt;" style="text;html=1;align=center;verticalAlign=middle;whiteSpace=wrap;rounded=0;" parent="j0LKuT5T8fVfJBvnA6u6-75" vertex="1">
          <mxGeometry x="130" y="200" width="60" height="15" as="geometry" />
        </mxCell>
        <mxCell id="j0LKuT5T8fVfJBvnA6u6-102" value="&lt;font style=&quot;font-size: 7px;&quot;&gt;&amp;lt;&amp;lt;extends&amp;gt;&amp;gt;&lt;/font&gt;" style="text;html=1;align=center;verticalAlign=middle;whiteSpace=wrap;rounded=0;" parent="j0LKuT5T8fVfJBvnA6u6-75" vertex="1">
          <mxGeometry x="260" y="200" width="60" height="15" as="geometry" />
        </mxCell>
        <mxCell id="j0LKuT5T8fVfJBvnA6u6-90" value="" style="endArrow=classic;html=1;rounded=0;entryX=0;entryY=0.5;entryDx=0;entryDy=0;" parent="1" source="j0LKuT5T8fVfJBvnA6u6-74" target="j0LKuT5T8fVfJBvnA6u6-77" edge="1">
          <mxGeometry width="50" height="50" relative="1" as="geometry">
            <mxPoint x="810" y="1650" as="sourcePoint" />
            <mxPoint x="860" y="1600" as="targetPoint" />
          </mxGeometry>
        </mxCell>
        <mxCell id="WYi6fyiotJUCtYdHp5KQ-1" value="&amp;lt;&amp;lt;layer&amp;gt;&amp;gt;&lt;div&gt;ApresentaÃ§Ã£o&lt;/div&gt;" style="shape=folder;fontStyle=1;spacingTop=10;tabWidth=40;tabHeight=14;tabPosition=left;html=1;whiteSpace=wrap;fillColor=#ffff88;strokeColor=light-dark(#b8009f, #babdc0);" vertex="1" parent="1">
          <mxGeometry x="1420" y="170" width="120" height="80" as="geometry" />
        </mxCell>
        <mxCell id="WYi6fyiotJUCtYdHp5KQ-2" value="&amp;lt;&amp;lt;layer&amp;gt;&amp;gt;&lt;div&gt;NegÃ³cio&lt;/div&gt;" style="shape=folder;fontStyle=1;spacingTop=10;tabWidth=40;tabHeight=14;tabPosition=left;html=1;whiteSpace=wrap;fillColor=#ffff88;strokeColor=light-dark(#b8009f, #babdc0);" vertex="1" parent="1">
          <mxGeometry x="1420" y="320" width="120" height="80" as="geometry" />
        </mxCell>
        <mxCell id="WYi6fyiotJUCtYdHp5KQ-3" value="&amp;lt;&amp;lt;layer&amp;gt;&amp;gt;&lt;div&gt;PersistÃªncia&lt;/div&gt;" style="shape=folder;fontStyle=1;spacingTop=10;tabWidth=40;tabHeight=14;tabPosition=left;html=1;whiteSpace=wrap;fillColor=#ffff88;strokeColor=light-dark(#b8009f, #babdc0);" vertex="1" parent="1">
          <mxGeometry x="1420" y="460" width="120" height="80" as="geometry" />
        </mxCell>
        <mxCell id="WYi6fyiotJUCtYdHp5KQ-4" value="" style="endArrow=classic;html=1;rounded=0;exitX=0.5;exitY=1;exitDx=0;exitDy=0;entryX=0.501;entryY=0.188;entryDx=0;entryDy=0;dashed=1;entryPerimeter=0;exitPerimeter=0;" edge="1" parent="1" source="WYi6fyiotJUCtYdHp5KQ-1" target="WYi6fyiotJUCtYdHp5KQ-2">
          <mxGeometry width="50" height="50" relative="1" as="geometry">
            <mxPoint x="1250" y="375" as="sourcePoint" />
            <mxPoint x="1250" y="315" as="targetPoint" />
          </mxGeometry>
        </mxCell>
        <mxCell id="WYi6fyiotJUCtYdHp5KQ-5" value="" style="endArrow=classic;html=1;rounded=0;exitX=0.5;exitY=1;exitDx=0;exitDy=0;entryX=0.494;entryY=0.134;entryDx=0;entryDy=0;dashed=1;entryPerimeter=0;exitPerimeter=0;" edge="1" parent="1" source="WYi6fyiotJUCtYdHp5KQ-2" target="WYi6fyiotJUCtYdHp5KQ-3">
          <mxGeometry width="50" height="50" relative="1" as="geometry">
            <mxPoint x="1479.57" y="410" as="sourcePoint" />
            <mxPoint x="1479.57" y="495" as="targetPoint" />
          </mxGeometry>
        </mxCell>
        <mxCell id="WYi6fyiotJUCtYdHp5KQ-6" value="&amp;lt;&amp;lt;layer&amp;gt;&amp;gt;&lt;div&gt;ApresentaÃ§Ã£o&lt;/div&gt;" style="shape=folder;fontStyle=1;spacingTop=10;tabWidth=40;tabHeight=14;tabPosition=left;html=1;whiteSpace=wrap;fillColor=#ffff88;strokeColor=light-dark(#b8009f, #babdc0);" vertex="1" parent="1">
          <mxGeometry x="2030" y="170" width="120" height="80" as="geometry" />
        </mxCell>
        <mxCell id="WYi6fyiotJUCtYdHp5KQ-7" value="&amp;lt;&amp;lt;layer&amp;gt;&amp;gt;&lt;div&gt;NegÃ³cio&lt;/div&gt;" style="shape=folder;fontStyle=1;spacingTop=10;tabWidth=40;tabHeight=14;tabPosition=left;html=1;whiteSpace=wrap;fillColor=#ffff88;strokeColor=light-dark(#b8009f, #babdc0);" vertex="1" parent="1">
          <mxGeometry x="2030" y="320" width="120" height="80" as="geometry" />
        </mxCell>
        <mxCell id="WYi6fyiotJUCtYdHp5KQ-8" value="&amp;lt;&amp;lt;layer&amp;gt;&amp;gt;&lt;div&gt;PersistÃªncia&lt;/div&gt;" style="shape=folder;fontStyle=1;spacingTop=10;tabWidth=40;tabHeight=14;tabPosition=left;html=1;whiteSpace=wrap;fillColor=#ffff88;strokeColor=light-dark(#b8009f, #babdc0);" vertex="1" parent="1">
          <mxGeometry x="2030" y="460" width="120" height="80" as="geometry" />
        </mxCell>
        <mxCell id="WYi6fyiotJUCtYdHp5KQ-9" value="" style="endArrow=classic;html=1;rounded=0;exitX=0.5;exitY=1;exitDx=0;exitDy=0;entryX=0.501;entryY=0.188;entryDx=0;entryDy=0;dashed=1;entryPerimeter=0;exitPerimeter=0;" edge="1" parent="1" source="WYi6fyiotJUCtYdHp5KQ-6" target="WYi6fyiotJUCtYdHp5KQ-7">
          <mxGeometry width="50" height="50" relative="1" as="geometry">
            <mxPoint x="1860" y="375" as="sourcePoint" />
            <mxPoint x="1860" y="315" as="targetPoint" />
          </mxGeometry>
        </mxCell>
        <mxCell id="WYi6fyiotJUCtYdHp5KQ-10" value="" style="endArrow=classic;html=1;rounded=0;exitX=0.5;exitY=1;exitDx=0;exitDy=0;entryX=0.494;entryY=0.134;entryDx=0;entryDy=0;dashed=1;entryPerimeter=0;exitPerimeter=0;" edge="1" parent="1" source="WYi6fyiotJUCtYdHp5KQ-7" target="WYi6fyiotJUCtYdHp5KQ-8">
          <mxGeometry width="50" height="50" relative="1" as="geometry">
            <mxPoint x="2089.5699999999997" y="410" as="sourcePoint" />
            <mxPoint x="2089.5699999999997" y="495" as="targetPoint" />
          </mxGeometry>
        </mxCell>
        <mxCell id="WYi6fyiotJUCtYdHp5KQ-11" value="&amp;lt;&amp;lt;tecnologia&amp;gt;&amp;gt;&lt;div&gt;SpringBoot&lt;/div&gt;" style="shape=folder;fontStyle=1;spacingTop=10;tabWidth=40;tabHeight=14;tabPosition=left;html=1;whiteSpace=wrap;fillColor=#ffff88;strokeColor=light-dark(#b8009f, #babdc0);" vertex="1" parent="1">
          <mxGeometry x="1830" y="460" width="120" height="80" as="geometry" />
        </mxCell>
        <mxCell id="WYi6fyiotJUCtYdHp5KQ-12" value="&amp;lt;&amp;lt;tecnologia&amp;gt;&amp;gt;&lt;div&gt;Hibernate&lt;/div&gt;" style="shape=folder;fontStyle=1;spacingTop=10;tabWidth=40;tabHeight=14;tabPosition=left;html=1;whiteSpace=wrap;fillColor=#ffff88;strokeColor=light-dark(#b8009f, #babdc0);" vertex="1" parent="1">
          <mxGeometry x="2250" y="460" width="120" height="80" as="geometry" />
        </mxCell>
        <mxCell id="WYi6fyiotJUCtYdHp5KQ-13" value="&amp;lt;&amp;lt;tecnologia&amp;gt;&amp;gt;&lt;div&gt;SGBD MySQL&lt;/div&gt;" style="shape=folder;fontStyle=1;spacingTop=10;tabWidth=40;tabHeight=14;tabPosition=left;html=1;whiteSpace=wrap;fillColor=#ffff88;strokeColor=light-dark(#b8009f, #babdc0);" vertex="1" parent="1">
          <mxGeometry x="2250" y="560" width="120" height="80" as="geometry" />
        </mxCell>
        <mxCell id="WYi6fyiotJUCtYdHp5KQ-14" value="&amp;lt;&amp;lt;tecnologia&amp;gt;&amp;gt;&lt;div&gt;HTML/CSS/JS&lt;/div&gt;" style="shape=folder;fontStyle=1;spacingTop=10;tabWidth=40;tabHeight=14;tabPosition=left;html=1;whiteSpace=wrap;fillColor=#ffff88;strokeColor=light-dark(#b8009f, #babdc0);" vertex="1" parent="1">
          <mxGeometry x="2210" y="170" width="120" height="80" as="geometry" />
        </mxCell>
        <mxCell id="WYi6fyiotJUCtYdHp5KQ-15" value="" style="endArrow=classic;html=1;rounded=0;exitX=0;exitY=0;exitDx=120.00000000000001;exitDy=47;entryX=0;entryY=0;entryDx=0;entryDy=47;dashed=1;entryPerimeter=0;exitPerimeter=0;" edge="1" parent="1" source="WYi6fyiotJUCtYdHp5KQ-6" target="WYi6fyiotJUCtYdHp5KQ-14">
          <mxGeometry width="50" height="50" relative="1" as="geometry">
            <mxPoint x="2200" y="280" as="sourcePoint" />
            <mxPoint x="2200" y="365" as="targetPoint" />
          </mxGeometry>
        </mxCell>
        <mxCell id="WYi6fyiotJUCtYdHp5KQ-16" value="" style="endArrow=classic;html=1;rounded=0;exitX=0;exitY=0;exitDx=0;exitDy=47;entryX=0;entryY=0;entryDx=40;entryDy=0;dashed=1;entryPerimeter=0;exitPerimeter=0;" edge="1" parent="1" source="WYi6fyiotJUCtYdHp5KQ-6" target="WYi6fyiotJUCtYdHp5KQ-11">
          <mxGeometry width="50" height="50" relative="1" as="geometry">
            <mxPoint x="1980" y="280" as="sourcePoint" />
            <mxPoint x="1980" y="365" as="targetPoint" />
          </mxGeometry>
        </mxCell>
        <mxCell id="WYi6fyiotJUCtYdHp5KQ-17" value="" style="endArrow=classic;html=1;rounded=0;exitX=0;exitY=0;exitDx=0;exitDy=63.5;entryX=0;entryY=0;entryDx=80;entryDy=14;dashed=1;entryPerimeter=0;exitPerimeter=0;" edge="1" parent="1" source="WYi6fyiotJUCtYdHp5KQ-7" target="WYi6fyiotJUCtYdHp5KQ-11">
          <mxGeometry width="50" height="50" relative="1" as="geometry">
            <mxPoint x="1980" y="350" as="sourcePoint" />
            <mxPoint x="1980" y="435" as="targetPoint" />
          </mxGeometry>
        </mxCell>
        <mxCell id="WYi6fyiotJUCtYdHp5KQ-18" value="" style="endArrow=classic;html=1;rounded=0;exitX=0;exitY=0;exitDx=0;exitDy=47;entryX=0;entryY=0;entryDx=120.00000000000001;entryDy=47;dashed=1;entryPerimeter=0;exitPerimeter=0;" edge="1" parent="1" source="WYi6fyiotJUCtYdHp5KQ-8" target="WYi6fyiotJUCtYdHp5KQ-11">
          <mxGeometry width="50" height="50" relative="1" as="geometry">
            <mxPoint x="1990" y="570" as="sourcePoint" />
            <mxPoint x="1990" y="655" as="targetPoint" />
          </mxGeometry>
        </mxCell>
        <mxCell id="WYi6fyiotJUCtYdHp5KQ-19" value="" style="endArrow=classic;html=1;rounded=0;exitX=0;exitY=0;exitDx=120.00000000000001;exitDy=47;entryX=0;entryY=0;entryDx=0;entryDy=47;dashed=1;entryPerimeter=0;exitPerimeter=0;" edge="1" parent="1" source="WYi6fyiotJUCtYdHp5KQ-8" target="WYi6fyiotJUCtYdHp5KQ-12">
          <mxGeometry width="50" height="50" relative="1" as="geometry">
            <mxPoint x="2190" y="475" as="sourcePoint" />
            <mxPoint x="2190" y="560" as="targetPoint" />
          </mxGeometry>
        </mxCell>
        <mxCell id="WYi6fyiotJUCtYdHp5KQ-20" value="" style="endArrow=classic;html=1;rounded=0;exitX=0;exitY=0;exitDx=120.00000000000001;exitDy=80;entryX=0;entryY=0;entryDx=0;entryDy=47;dashed=1;entryPerimeter=0;exitPerimeter=0;" edge="1" parent="1" source="WYi6fyiotJUCtYdHp5KQ-8" target="WYi6fyiotJUCtYdHp5KQ-13">
          <mxGeometry width="50" height="50" relative="1" as="geometry">
            <mxPoint x="2180" y="585" as="sourcePoint" />
            <mxPoint x="2180" y="670" as="targetPoint" />
          </mxGeometry>
        </mxCell>
      </root>
    </mxGraphModel>
  </diagram>
</mxfile>
